<svg width="40" height="40" viewBox="0 0 40 40" fill="none" xmlns="http://www.w3.org/2000/svg">
<g clip-path="url(#clip0_316_50)">
<path d="M3.83 38.5375C3.69563 38.3543 4.08375 37.055 4.1625 36.9618C6.20688 34.5818 6.28188 26.9243 6.24 25.8331C6.1375 23.3143 7.4725 20.7668 8.59875 21.3175C9.68625 21.8487 10.5388 27.0862 10.7481 28.1343C11.265 30.6975 11.0625 33.7656 10.2325 36.1956C9.35625 38.7687 5.96938 41.38 3.83 38.5375ZM36.2344 38.5375C36.3681 38.3543 35.9806 37.055 35.9013 36.9618C33.8569 34.5818 33.7825 26.9243 33.8244 25.8331C33.9263 23.3143 32.5913 20.7668 31.465 21.3175C30.3781 21.8487 29.5256 27.0862 29.3163 28.1343C28.7994 30.6975 29.0019 33.7656 29.8319 36.1956C30.7075 38.7687 34.0944 41.38 36.2344 38.5375Z" fill="#C2986B"/>
<path d="M1.51311 10.8336C2.86311 12.1843 6.04123 11.1918 8.61748 8.6149C11.1925 6.0399 12.185 2.86302 10.835 1.51177C9.48811 0.166146 4.07623 -1.0751 1.49998 1.4999C-1.07502 4.0749 0.166232 9.48802 1.51311 10.8336ZM38.3875 10.8336C37.0381 12.1843 33.86 11.1918 31.2837 8.6149C28.7087 6.0399 27.7162 2.86302 29.0656 1.51177C30.4131 0.166146 35.8244 -1.0751 38.4006 1.4999C40.9756 4.0749 39.7344 9.48802 38.3875 10.8336Z" fill="#FBB041"/>
<path d="M38.0056 20.6687C38.0056 30.6556 29.9119 38.7512 19.9244 38.7512C9.93687 38.7512 1.8425 30.6562 1.8425 20.6687C1.8425 10.6837 9.93625 3.7312 19.9237 3.7312C29.9112 3.7312 38.0056 10.6831 38.0056 20.6687Z" fill="#A7A8AC"/>
<path d="M33.4563 20.8126C33.4563 28.2882 27.3975 34.3476 19.9213 34.3476C12.445 34.3476 6.38626 28.2882 6.38626 20.8126C6.38626 13.3389 12.4456 8.13574 19.9213 8.13574C27.3969 8.13574 33.4563 13.3389 33.4563 20.8126Z" fill="#E7E6E6"/>
<path d="M21.5969 21.9561C21.5969 23.0536 20.725 23.9411 19.6487 23.9411C18.5725 23.9411 17.7006 23.0536 17.7006 21.9561V12.6274C17.7006 11.533 18.5725 10.6455 19.6487 10.6455C20.7256 10.6455 21.5969 11.533 21.5969 12.6274V21.9561Z" fill="#25333A"/>
<path d="M19.7656 23.9436C18.6231 23.9436 17.7 23.3386 17.7 22.593C17.7 21.8492 18.6231 21.2449 19.7656 21.2449H29.4888C30.6306 21.2449 31.5563 21.8492 31.5563 22.593C31.5563 23.3386 30.6313 23.9436 29.4888 23.9436H19.7656Z" fill="#25333A"/>
</g>
<defs>
<clipPath id="clip0_316_50">
<rect width="40" height="40" fill="white"/>
</clipPath>
</defs>
</svg>
